<?xml version="1.0" encoding="UTF-8"?>
<svg id="badgeuse" xmlns="http://www.w3.org/2000/svg" viewBox="0 0 100 100">
  <g>
    <path d="M34.68,44h19.42v12h-19.42c-3.31,0-6-2.69-6-6s2.69-6,6-6Z"/>
    <path d="M54.1,7.81v30.19h-19.42c-6.62,0-12,5.38-12,12s5.38,12,12,12h19.42v30.18c0,4.04-3.28,7.32-7.32,7.32H8.42c-4.04,0-7.32-3.28-7.32-7.32V7.81C1.1,3.77,4.38,.5,8.42,.5H46.78c4.04,0,7.32,3.27,7.32,7.31Z"/>
  </g>
  <path d="M98.46,52.25v-.02c.15-.35,.26-.71,.33-1.09v-.03c.07-.36,.11-.74,.11-1.12h0v-.02c0-.37-.04-.73-.1-1.08,0-.03,0-.06-.01-.09-.07-.34-.17-.68-.3-1-.02-.04-.03-.09-.05-.13-.13-.32-.29-.62-.47-.9-.03-.05-.05-.09-.09-.14-.2-.3-.43-.57-.68-.83-.02-.02-.04-.05-.06-.07l-24.26-24.25c-2.34-2.34-6.14-2.34-8.49,0-2.34,2.34-2.34,6.14,0,8.49l14.02,14.02H34.68c-3.31,0-6,2.68-6,6s2.69,6,6,6h43.73l-14.01,14.01c-2.34,2.34-2.34,6.14,0,8.48,1.17,1.17,2.71,1.76,4.24,1.76s3.07-.59,4.24-1.76l24.17-24.17c.6-.58,1.08-1.28,1.4-2.07Z"/>
</svg>