<?xml version="1.0" encoding="UTF-8"?>
<svg id="badgeuse" xmlns="http://www.w3.org/2000/svg" viewBox="0 0 100 100">
  <defs>
    <style>
      .cls-1 {
        fill: #fec500;
      }
    </style>
  </defs>
  <g id="Icon_feather-sun" data-name="Icon feather-sun" transform="translate(-0.25 -0.25)">
    <g id="Tracé_10" data-name="Tracé 10">
      <path class="cls-1" d="M69.66,50c0,10.86-8.8,19.66-19.66,19.66s-19.66-8.8-19.66-19.66,8.8-19.66,19.66-19.66h0c10.86,0,19.66,8.8,19.66,19.66h0Z"/>
    </g>
    <g id="Tracé_11" data-name="Tracé 11">
      <path class="cls-1" d="M50,20.62c-3.31,0-6-2.69-6-6V6.75c0-3.31,2.69-6,6-6s6,2.69,6,6v7.86c0,3.31-2.69,6-6,6Z"/>
    </g>
    <g id="Tracé_12" data-name="Tracé 12">
      <path class="cls-1" d="M50,99.25c-3.31,0-6-2.69-6-6v-7.86c0-3.31,2.69-6,6-6s6,2.69,6,6v7.86c0,3.31-2.69,6-6,6Z"/>
    </g>
    <g id="Tracé_13" data-name="Tracé 13">
      <path class="cls-1" d="M25,31c-1.54,0-3.07-.59-4.24-1.76l-5.58-5.58c-2.34-2.34-2.34-6.14,0-8.49,2.34-2.34,6.14-2.34,8.49,0l5.58,5.58c2.34,2.34,2.34,6.14,0,8.49-1.17,1.17-2.71,1.76-4.24,1.76Z"/>
    </g>
    <g id="Tracé_14" data-name="Tracé 14">
      <path class="cls-1" d="M80.59,86.59c-1.54,0-3.07-.59-4.24-1.76l-5.58-5.58c-2.34-2.34-2.34-6.14,0-8.49,2.34-2.34,6.14-2.34,8.49,0l5.58,5.58c2.34,2.34,2.34,6.14,0,8.49-1.17,1.17-2.71,1.76-4.24,1.76Z"/>
    </g>
    <g id="Tracé_15" data-name="Tracé 15">
      <path class="cls-1" d="M14.62,56H6.75c-3.31,0-6-2.69-6-6s2.69-6,6-6h7.86c3.31,0,6,2.69,6,6s-2.69,6-6,6Z"/>
    </g>
    <g id="Tracé_16" data-name="Tracé 16">
      <path class="cls-1" d="M93.25,56h-7.86c-3.31,0-6-2.69-6-6s2.69-6,6-6h7.86c3.31,0,6,2.69,6,6s-2.69,6-6,6Z"/>
    </g>
    <g id="Tracé_17" data-name="Tracé 17">
      <path class="cls-1" d="M19.41,86.59c-1.54,0-3.07-.59-4.24-1.76-2.34-2.34-2.34-6.14,0-8.48l5.58-5.58c2.34-2.34,6.14-2.34,8.48,0,2.34,2.34,2.34,6.14,0,8.48l-5.58,5.58c-1.17,1.17-2.71,1.76-4.24,1.76Z"/>
    </g>
    <g id="Tracé_18" data-name="Tracé 18">
      <path class="cls-1" d="M75,31c-1.54,0-3.07-.59-4.24-1.76-2.34-2.34-2.34-6.14,0-8.48l5.58-5.58c2.34-2.34,6.14-2.34,8.48,0,2.34,2.34,2.34,6.14,0,8.48l-5.58,5.58c-1.17,1.17-2.71,1.76-4.24,1.76Z"/>
    </g>
  </g>
</svg>