<?xml version="1.0" encoding="UTF-8"?>
<svg id="badgeuse" xmlns="http://www.w3.org/2000/svg" viewBox="0 0 100 100">
  <path d="M50,24.79c13.35,0,24.25,10.45,24.96,23.62l16.77,15.38c3.39-3.48,6.01-7.24,7.55-11.04,.72-1.77,.71-3.74-.02-5.5-6.15-14.92-29.8-29.53-49.26-29.68-2.55,.01-5.18,.29-7.82,.77l7.04,6.47c.26-.02,.52-.02,.78-.02Zm32.38,46.76s.02-.01,.03-.02l-10.52-9.66s-.01,.03-.02,.04l-4.42-4.05s.01-.03,.02-.04l-6.64-6.09s-.03,.01-.05,.01l-12.79-11.73v-.05l-7.47-6.86s-.03,.01-.04,.02l-4.44-4.07s.03-.02,.04-.02l-7.16-6.57s-.03,.01-.05,.02L10.57,5.69c-2.44-2.24-6.24-2.07-8.48,.37C-.15,8.5,.02,12.29,2.46,14.53l15.29,14.03C9.85,33.86,3.51,40.52,.74,47.25c-.73,1.76-.74,3.73-.02,5.5,6.12,15.14,29.43,29.53,49.28,29.67,6.95-.05,14.32-1.85,21.23-4.81l18.2,16.69c1.15,1.06,2.6,1.58,4.05,1.58,1.63,0,3.24-.65,4.43-1.94,2.24-2.44,2.07-6.24-.37-8.48l-15.16-13.91Zm-32.38,3.24c-13.81,0-25-11.19-25-25,0-4.29,1.08-8.32,2.98-11.85l4.59,4.21c-.76,1.79-1.28,3.71-1.46,5.73-.48,5.09,1.06,10.06,4.33,14,3.27,3.93,7.88,6.36,12.97,6.83,.6,.05,1.2,.08,1.8,.08,3.15,0,6.2-.78,8.95-2.25l4.54,4.16c-3.94,2.58-8.64,4.09-13.7,4.09Z"/>
</svg>