<?xml version="1.0" encoding="UTF-8"?>
<svg id="badgeuse" xmlns="http://www.w3.org/2000/svg" viewBox="0 0 100 100">
  <path d="M99.26,47.25c-6.16-14.91-29.8-29.53-49.26-29.67-19.46,.15-43.11,14.76-49.26,29.67-.73,1.77-.73,3.73-.01,5.51,6.12,15.14,29.43,29.53,49.28,29.67,19.85-.14,43.16-14.53,49.28-29.67,.72-1.77,.71-3.74-.01-5.51Zm-49.26,27.54c-13.81,0-25-11.19-25-25s11.19-25,25-25,25,11.19,25,25-11.19,25-25,25Z"/>
  <path d="M68.23,49.48c-.69-.39-1.54-.33-2.17,.13-4.03,2.98-9.45,2.98-13.48,0-2.44-1.8-4.02-4.44-4.47-7.44s.29-5.99,2.1-8.42c.47-.63,.52-1.48,.13-2.17-.39-.69-1.15-1.09-1.93-1.01-9.18,.85-16.46,8.13-17.31,17.3-.47,5.09,1.07,10.07,4.34,14s7.87,6.36,12.97,6.83c.6,.06,1.2,.08,1.8,.08,4.46,0,8.73-1.54,12.2-4.42,3.93-3.27,6.36-7.87,6.83-12.97,.07-.79-.32-1.54-1.01-1.93Z"/>
</svg>