<?xml version="1.0" encoding="UTF-8"?>
<svg id="icone" xmlns="http://www.w3.org/2000/svg" viewBox="0 0 100 100">
  <defs>
    <style>
      .cls-1 {
        fill: #030f4c;
      }
    </style>
  </defs>
  <path class="cls-1" d="M2.9,92.59l-.3-9.6c-.05-1.54,.54-3.04,1.63-4.13L60.85,22.07c2.18-2.19,5.72-2.19,7.91-.01l9.9,9.88c2.19,2.18,2.19,5.72,.01,7.91L22.05,96.64c-1.09,1.09-2.58,1.69-4.12,1.64l-9.6-.28c-2.9-.08-5.34-2.52-5.43-5.42Z"/>
  <path class="cls-1" d="M97.85,12.68l-9.9-9.88c-2.19-2.18-5.73-2.18-7.91,.01l-5.93,5.94c-2.18,2.19-2.18,5.73,.01,7.91l9.9,9.88c2.19,2.18,5.73,2.18,7.91-.01l5.93-5.94c2.18-2.19,2.18-5.73-.01-7.91Z"/>
</svg>