<?xml version="1.0" encoding="UTF-8"?>
<svg id="badgeuse" xmlns="http://www.w3.org/2000/svg" viewBox="0 0 100 100">
  <defs>
    <style>
      .cls-1 {
        fill: #030f4c;
      }
    </style>
  </defs>
  <path class="cls-1" d="M96.77,49.91c-2.29-1.46-5.25-1.44-7.52,.04-9.82,6.38-22.75,5.98-32.17-.98-12-8.87-15.03-25.6-6.91-38.09,1.48-2.28,1.49-5.24,.03-7.53-1.47-2.3-4.16-3.54-6.85-3.15C18.44,3.71-.05,25.4,.35,50.63c.39,24.95,19.42,45.93,44.26,48.8,1.96,.23,3.91,.34,5.85,.34,11.06,0,21.75-3.64,30.59-10.5,10.35-8.03,17.05-19.58,18.88-32.51h0c.38-2.7-.86-5.39-3.16-6.85Z"/>
</svg>