<?xml version="1.0" encoding="UTF-8"?>
<svg id="badgeuse" xmlns="http://www.w3.org/2000/svg" viewBox="0 0 100 100">
  <path d="M94.91,59.9l-5.43-5.24c-.18-.18-.28-.41-.25-.63,.28-2.68,.28-5.4,0-8.08-.02-.22,.07-.45,.25-.63l5.43-5.24c2.26-2.19,2.75-5.62,1.17-8.34l-7.23-12.53c-1.57-2.72-4.78-4.02-7.8-3.16l-7.6,2.16c-.24,.07-.49,.03-.66-.09-2.05-1.43-4.25-2.66-6.54-3.66-.21-.09-.38-.3-.44-.54l-1.95-7.76c-.76-3.05-3.49-5.18-6.64-5.18h-14.46c-3.15,0-5.88,2.13-6.64,5.19l-2.11,8.44c-.06,.24-.2,.43-.38,.52-1.93,.94-3.79,2.05-5.52,3.29-.18,.13-.42,.16-.67,.09l-8.49-2.43c-3.03-.87-6.24,.43-7.81,3.16L3.91,31.76c-1.57,2.72-1.09,6.15,1.17,8.34l6.59,6.36c.18,.17,.27,.4,.25,.62-.15,1.93-.15,3.9,0,5.85,.02,.22-.08,.45-.25,.62l-6.59,6.38c-2.26,2.19-2.74,5.62-1.17,8.34l7.23,12.53c1.57,2.73,4.79,4.03,7.81,3.16l8.49-2.43c.24-.07,.49-.04,.67,.09,1.74,1.25,3.6,2.35,5.53,3.29,.18,.09,.33,.28,.38,.52l2.11,8.45c.76,3.05,3.49,5.18,6.64,5.18h14.46c3.14,0,5.87-2.13,6.64-5.18l1.95-7.78c.06-.24,.22-.45,.44-.54,2.29-1.01,4.49-2.25,6.54-3.68,.18-.13,.43-.16,.67-.09l7.59,2.17c3.02,.86,6.23-.44,7.8-3.16l7.23-12.53c1.57-2.73,1.09-6.16-1.17-8.34Zm-44.91,6.89c-9.39,0-17-7.61-17-17s7.61-17,17-17,17,7.61,17,17-7.61,17-17,17Z"/>
</svg>